<?xml version="1.0" encoding="utf-8"?>
<!-- Generator: Adobe Illustrator 16.0.0, SVG Export Plug-In . SVG Version: 6.00 Build 0)  -->
<!DOCTYPE svg PUBLIC "-//W3C//DTD SVG 1.1//EN" "http://www.w3.org/Graphics/SVG/1.1/DTD/svg11.dtd">
<svg version="1.1" id="Calque_1" xmlns="http://www.w3.org/2000/svg" xmlns:xlink="http://www.w3.org/1999/xlink" x="0px" y="0px"
	 width="1920px" height="175px" viewBox="0 0 1920 175" enable-background="new 0 0 1920 175" xml:space="preserve">
<g>
	<circle fill="#FFFFFF" cx="201.28" cy="88.082" r="52.321"/>
	<path d="M201.28,141.102c-29.235,0-53.019-23.784-53.019-53.02c0-29.234,23.784-53.018,53.019-53.018
		c29.234,0,53.019,23.783,53.019,53.018C254.298,117.317,230.514,141.102,201.28,141.102z M201.28,36.459
		c-28.465,0-51.624,23.158-51.624,51.623c0,28.467,23.159,51.625,51.624,51.625c28.465,0,51.624-23.158,51.624-51.625
		C252.903,59.617,229.745,36.459,201.28,36.459z"/>
</g>
<g>
	<circle fill="#FFFFFF" cx="960.001" cy="88.082" r="52.322"/>
	<path d="M960,141.102c-29.234,0-53.019-23.784-53.019-53.02c0-29.234,23.784-53.018,53.019-53.018
		c29.234,0,53.017,23.783,53.017,53.018C1013.018,117.317,989.234,141.102,960,141.102z M960,36.459
		c-28.466,0-51.623,23.158-51.623,51.623c0,28.467,23.157,51.625,51.623,51.625c28.466,0,51.623-23.158,51.623-51.625
		C1011.623,59.617,988.467,36.459,960,36.459z"/>
</g>
<g>
	<circle fill="#FFFFFF" cx="1719.293" cy="88.082" r="52.321"/>
	<path d="M1719.292,141.102c-29.234,0-53.018-23.784-53.018-53.02c0-29.234,23.783-53.018,53.018-53.018
		c29.235,0,53.02,23.783,53.02,53.018C1772.312,117.317,1748.527,141.102,1719.292,141.102z M1719.292,36.459
		c-28.465,0-51.623,23.158-51.623,51.623c0,28.467,23.158,51.625,51.623,51.625c28.467,0,51.625-23.158,51.625-51.625
		C1770.917,59.617,1747.759,36.459,1719.292,36.459z"/>
</g>
<rect x="253" y="88" width="655" height="1"/>
<rect x="1013" y="88" width="655" height="1"/>
</svg>
